<svg xmlns="http://www.w3.org/2000/svg" xmlns:xlink="http://www.w3.org/1999/xlink" xmlns:inkscape="http://www.inkscape.org/namespaces/inkscape" version="1.1" width="800" height="800" viewBox="0 0 800 800">
<defs>
<clipPath id="clip_0">
<path transform="matrix(1,0,0,-1,0,800)" d="M0 800H800V0H0Z"/>
</clipPath>
</defs>
<g inkscape:groupmode="layer" inkscape:label="Layer 1">
<g clip-path="url(#clip_0)">
<path transform="matrix(1,0,0,-1,109.9604,563.1699)" d="M0 0C3.21-2.556 7.159-4.588 11.845-6.094 16.53-7.603 21.167-8.355 25.754-8.355 29.49-8.355 32.454-7.782 34.65-6.636 36.845-5.489 37.943-3.966 37.943-2.064 37.943-.624 37.565 .604 36.813 1.622 36.058 2.637 34.927 3.455 33.421 4.08 31.913 4.701 30.34 5.21 28.703 5.603 27.064 5.996 25.099 6.39 22.805 6.782 22.412 6.847 22.083 6.896 21.822 6.931 21.56 6.962 21.296 7.012 21.036 7.077 12.058 8.781 5.604 11.27 1.672 14.548-2.261 17.824-4.226 22.378-4.226 28.211-4.226 34.632-1.704 39.81 3.343 43.741 8.388 47.674 15.04 49.64 23.297 49.64 35.55 49.64 45.118 47.115 51.999 42.07L46.495 29.686C43.743 31.52 40.204 32.993 35.879 34.108 31.553 35.222 27.293 35.779 23.1 35.779 19.889 35.779 17.315 35.271 15.383 34.257 13.45 33.239 12.484 31.912 12.484 30.275 12.484 29.029 12.86 27.98 13.615 27.13 14.367 26.277 15.563 25.572 17.202 25.017 18.84 24.459 20.412 24.017 21.92 23.689 23.428 23.36 25.474 22.952 28.063 22.46 30.652 21.969 32.765 21.526 34.404 21.134 37.287 20.411 39.811 19.594 41.973 18.676 44.135 17.758 46.249 16.497 48.313 14.893 50.377 13.285 51.95 11.205 53.032 8.65 54.113 6.094 54.653 3.112 54.653-.295 54.653-7.11 52.015-12.451 46.741-16.317 41.464-20.184 34.174-22.116 24.87-22.116 12.025-22.116 1.868-18.939-5.603-12.582Z" fill="#f89522"/>
<path transform="matrix(1,0,0,-1,179.356,520.41116)" d="M0 0V5.406H12.091C15.498 5.406 17.939 4.685 19.414 3.243 20.889 1.802 21.625-.525 21.625-3.735V-4.129-35.288C21.625-40.728 22.789-44.808 25.115-47.526 27.441-50.246 30.733-51.605 34.994-51.605 39.253-51.605 42.546-50.246 44.873-47.526 47.198-44.808 48.363-40.728 48.363-35.288V5.406H65.072V-35.779C65.072-45.02 62.401-52.016 57.061-56.767 51.72-61.519 44.365-63.893 34.994-63.893 25.622-63.893 18.266-61.519 12.927-56.767 7.584-52.016 4.916-45.02 4.916-35.779V-7.765C4.916-5.079 4.571-3.194 3.883-2.113 3.195-1.032 1.9-.328 0 0" fill="#f89522"/>
<path transform="matrix(1,0,0,-1,274.8018,515.0049)" d="M0 0C3.735 0 6.748-.722 9.043-2.163 11.336-3.604 13.794-6.291 16.416-10.223L38.729-43.938 38.433-34.403V0H55.144V-68.808H38.532C37.09-68.808 36.172-68.693 35.78-68.464 35.387-68.234 34.797-67.529 34.01-66.35L9.83-29.686 9.927-34.403V-68.808H-6.782V-13.171C-6.782-10.485-7.127-8.601-7.815-7.52-8.502-6.438-9.797-5.734-11.698-5.406V0Z" fill="#f89522"/>
<path transform="matrix(1,0,0,-1,370.2466,547.7373)" d="M0 0H10.027C13.827 0 16.792 .867 18.922 2.604 21.052 4.341 22.118 6.782 22.118 9.928 22.118 13.138 21.069 15.612 18.972 17.349 16.874 19.085 13.893 19.954 10.027 19.954H0ZM-21.625 27.326V32.732H12.779C21.363 32.732 27.851 30.865 32.242 27.129 36.631 23.395 38.828 17.856 38.828 10.518 38.828 .819 34.241-5.965 25.065-9.83 26.442-10.682 27.587-11.829 28.506-13.271L43.054-36.075H26.738C25.295-36.075 24.378-35.977 23.984-35.78 23.592-35.584 23.002-34.863 22.215-33.617L10.617-15.531C9.437-13.697 7.668-12.779 5.309-12.779H0V-36.075H-16.709V19.562C-16.709 22.247-17.054 24.132-17.742 25.213-18.43 26.294-19.725 26.998-21.625 27.326" fill="#f89522"/>
<path transform="matrix(1,0,0,-1,426.5703,520.41116)" d="M0 0V5.406H12.091C15.498 5.406 17.939 4.669 19.413 3.194 20.889 1.721 21.625-.722 21.625-4.129V-63.401H4.915V-7.765C4.915-5.079 4.57-3.194 3.883-2.113 3.195-1.032 1.9-.328 0 0" fill="#f89522"/>
<path transform="matrix(1,0,0,-1,501.9639,571.0332)" d="M0 0C11.402 0 17.104 5.603 17.104 16.808V26.441C17.104 37.647 11.402 43.25 0 43.25H-13.468V0ZM-35.093 50.622V56.028H0C10.55 56.028 18.823 53.537 24.819 48.559 30.815 43.576 33.813 36.697 33.813 27.916V15.334C33.813 6.552 30.815-.329 24.819-5.309 18.823-10.289 10.55-12.779 0-12.779H-30.177V42.857C-30.177 45.543-30.521 47.428-31.21 48.509-31.897 49.59-33.192 50.294-35.093 50.622" fill="#f89522"/>
<path transform="matrix(1,0,0,-1,555.4355,541.64358)" d="M0 0C0 8.781 2.998 15.662 8.993 20.643 14.99 25.622 23.263 28.113 33.813 28.113 46.723 28.113 56.028 24.541 61.729 17.399L54.26 6.488C48.886 11.73 42.07 14.352 33.813 14.352 22.411 14.352 16.71 9.174 16.71-1.18V-14.351C16.71-19.462 18.053-23.33 20.74-25.949 23.427-28.572 27.228-29.882 32.143-29.882 36.009-29.882 39.351-28.981 42.169-27.178 44.986-25.377 46.559-23.066 46.888-20.248V-18.283C46.888-15.662 46.544-13.811 45.855-12.729 45.167-11.647 43.872-10.943 41.973-10.615V-5.209H55.733C58.093-5.209 59.992-5.931 61.435-7.372 62.875-8.813 63.598-10.714 63.598-13.073V-42.169H53.276C52.358-42.169 51.769-42.087 51.507-41.923 51.245-41.76 50.949-41.219 50.622-40.301L49.246-36.369C44.068-41.219 37.483-43.643 29.488-43.643 20.249-43.643 13.023-41.154 7.814-36.173 2.605-31.193 0-24.312 0-15.53Z" fill="#f89522"/>
<path transform="matrix(1,0,0,-1,636.7256,515.0049)" d="M0 0H57.012V-12.778H21.625V-28.31H52.098V-40.596H21.625V-56.028H57.012V-68.808H4.916V-13.171C4.916-10.485 4.571-8.601 3.883-7.52 3.195-6.438 1.9-5.734 0-5.406Z" fill="#f89522"/>
<path transform="matrix(1,0,0,-1,133.5366,606.2471)" d="M0 0C1.133 0 1.542-.408 1.542-1.542V-30.659C1.542-31.793 1.133-32.201 0-32.201H-2.314C-3.448-32.201-3.856-31.793-3.856-30.659V-16.826C-3.856-14.104-3.493-11.111-2.768-7.801H-3.085C-3.947-10.431-5.217-13.197-6.804-16.1L-11.248-23.946C-11.701-24.673-12.291-25.035-13.017-25.035H-14.469C-15.421-25.035-15.739-24.854-16.238-23.946L-20.773-16.055C-22.178-13.696-23.312-10.931-24.265-7.801H-24.582C-23.947-10.885-23.63-13.924-23.63-16.871V-30.659C-23.63-31.793-24.038-32.201-25.172-32.201H-27.349C-28.483-32.201-28.936-31.793-28.936-30.659V-1.542C-28.936-.408-28.483 0-27.349 0H-25.353C-24.083 0-23.676-.226-23.176-1.18L-13.742-18.051-4.31-1.225C-3.765-.182-3.448 0-2.223 0Z" fill="#673090"/>
<path transform="matrix(1,0,0,-1,146.8755,627.4268)" d="M0 0C0-4.127 2.404-6.396 6.985-6.396 11.565-6.396 13.969-4.127 13.969 0V19.638C13.969 20.771 14.377 21.18 15.511 21.18H18.096C19.23 21.18 19.638 20.771 19.638 19.638V.046C19.638-7.211 15.148-11.701 6.985-11.701-1.179-11.701-5.714-7.211-5.714 .046V19.638C-5.714 20.771-5.306 21.18-4.173 21.18H-1.542C-.408 21.18 0 20.771 0 19.638Z" fill="#673090"/>
<path transform="matrix(1,0,0,-1,176.7676,606.2471)" d="M0 0C1.134 0 1.542-.408 1.542-1.542V-26.895H14.558C15.692-26.895 16.1-27.303 16.1-28.437V-30.659C16.1-31.793 15.692-32.201 14.558-32.201H-2.586C-3.719-32.201-4.172-31.793-4.172-30.659V-1.542C-4.172-.408-3.719 0-2.586 0Z" fill="#673090"/>
<path transform="matrix(1,0,0,-1,211.8286,606.2471)" d="M0 0C1.134 0 1.542-.408 1.542-1.542V-3.765C1.542-4.897 1.134-5.307 0-5.307H-7.8V-30.659C-7.8-31.793-8.209-32.201-9.342-32.201H-11.973C-13.106-32.201-13.515-31.793-13.515-30.659V-5.307H-21.316C-22.45-5.307-22.858-4.897-22.858-3.765V-1.542C-22.858-.408-22.45 0-21.316 0Z" fill="#673090"/>
<path transform="matrix(1,0,0,-1,217.1392,607.78909)" d="M0 0C0 1.134 .453 1.542 1.587 1.542H4.173C5.306 1.542 5.715 1.134 5.715 0V-29.117C5.715-30.251 5.306-30.659 4.173-30.659H1.587C.453-30.659 0-30.251 0-29.117Z" fill="#673090"/>
<path transform="matrix(1,0,0,-1,250.5225,605.5664)" d="M0 0C6.305 0 9.706-2.177 11.929-6.849 12.382-7.801 12.11-8.481 11.067-8.935L8.572-10.023C7.529-10.432 7.166-10.295 6.623-9.252 5.352-6.712 3.447-5.443 0-5.443-4.398-5.443-6.576-6.849-6.576-9.614-6.848-12.02-4.172-13.107-1.769-13.471-.362-13.742 2.903-14.105 4.582-14.423 6.395-14.785 8.89-15.693 10.296-16.963 11.701-18.231 12.79-20.5 12.79-23.402 12.79-29.57 8.028-33.562-.136-33.562-6.984-33.562-10.658-31.067-12.608-25.987-13.016-24.854-12.744-24.354-11.655-23.992L-9.161-23.085C-8.118-22.723-7.709-22.949-7.21-24.037-6.032-26.85-3.673-28.256-.136-28.256 4.672-28.256 7.076-26.668 7.076-23.539 7.076-21.543 5.352-20.318 3.539-19.865 2.631-19.639 1.407-19.457-.09-19.32-2.131-19.095-2.993-19.003-4.943-18.596-6.894-18.187-7.846-17.688-9.297-16.735-11.338-15.42-12.291-13.289-12.427-9.933-12.427-3.992-7.937 0 0 0" fill="#673090"/>
<path transform="matrix(1,0,0,-1,280.8232,621.9395)" d="M0 0C3.31 0 5.26 1.905 5.26 5.171 5.26 8.436 3.31 10.386 0 10.386H-7.347V0ZM.544 15.692C7.12 15.692 11.247 11.701 11.247 5.171 11.247-1.361 7.12-5.307 .544-5.307H-7.347V-14.967C-7.347-16.101-7.755-16.509-8.889-16.509H-11.475C-12.608-16.509-13.062-16.101-13.062-14.967V14.15C-13.062 15.284-12.608 15.692-11.475 15.692Z" fill="#673090"/>
<path transform="matrix(1,0,0,-1,316.0205,606.2471)" d="M0 0C1.134 0 1.588-.408 1.588-1.542V-3.765C1.588-4.897 1.134-5.307 0-5.307H-13.877V-13.243H-2.131C-.998-13.243-.589-13.651-.589-14.785V-17.008C-.589-18.141-.998-18.55-2.131-18.55H-13.877V-26.895H.5C1.633-26.895 2.042-27.303 2.042-28.437V-30.659C2.042-31.793 1.633-32.201 .5-32.201H-18.005C-19.139-32.201-19.592-31.793-19.592-30.659V-1.542C-19.592-.408-19.139 0-18.005 0Z" fill="#673090"/>
<path transform="matrix(1,0,0,-1,321.5137,617.3584)" d="M0 0C0 7.303 4.672 11.792 12.971 11.792 19.411 11.792 23.539 9.252 25.307 4.218 25.67 3.265 25.353 2.585 24.354 2.222L21.86 1.36C20.771 .998 20.318 1.224 19.91 2.313 18.913 5.08 16.599 6.485 12.971 6.485 8.299 6.485 5.714 4.218 5.714 .046V-9.979C5.714-14.15 8.299-16.464 12.971-16.464 16.554-16.464 18.867-15.058 19.91-12.245 20.409-11.111 20.817-10.885 21.906-11.293L24.354-12.154C25.353-12.519 25.67-13.198 25.353-14.15 23.583-19.229 19.457-21.77 12.971-21.77 4.672-21.77 0-17.325 0-9.933Z" fill="#673090"/>
<path transform="matrix(1,0,0,-1,351.4517,607.78909)" d="M0 0C0 1.134 .453 1.542 1.587 1.542H4.173C5.306 1.542 5.715 1.134 5.715 0V-29.117C5.715-30.251 5.306-30.659 4.173-30.659H1.587C.453-30.659 0-30.251 0-29.117Z" fill="#673090"/>
<path transform="matrix(1,0,0,-1,376.8516,616.9961)" d="M0 0C-.544 1.633-.908 3.72-1.043 4.763L-1.089 5.533H-1.407C-1.407 3.811-1.724 1.996-2.404 .046L-5.896-9.569H3.446ZM13.333-19.955C13.696-20.953 13.333-21.452 12.291-21.452H9.932C8.072-21.452 7.483-21.18 7.12-20.091L5.034-14.241H-7.484L-9.616-20.091C-9.978-21.18-10.568-21.452-12.428-21.452H-14.513C-15.556-21.452-15.92-20.953-15.556-19.955L-4.218 9.524C-3.811 10.567-3.402 10.795-2.313 10.795H.09C1.179 10.795 1.632 10.523 1.995 9.569Z" fill="#673090"/>
<path transform="matrix(1,0,0,-1,397.4458,606.2471)" d="M0 0C1.134 0 1.542-.408 1.542-1.542V-26.895H14.558C15.692-26.895 16.1-27.303 16.1-28.437V-30.659C16.1-31.793 15.692-32.201 14.558-32.201H-2.586C-3.719-32.201-4.172-31.793-4.172-30.659V-1.542C-4.172-.408-3.719 0-2.586 0Z" fill="#673090"/>
<path transform="matrix(1,0,0,-1,417.2236,607.78909)" d="M0 0C0 1.134 .453 1.542 1.587 1.542H4.173C5.307 1.542 5.715 1.134 5.715 0V-29.117C5.715-30.251 5.307-30.659 4.173-30.659H1.587C.453-30.659 0-30.251 0-29.117Z" fill="#673090"/>
<path transform="matrix(1,0,0,-1,449.5625,606.2471)" d="M0 0C1.134 0 1.542-.408 1.542-1.542V-3.765C1.542-4.897 1.134-5.307 0-5.307H-7.801V-30.659C-7.801-31.793-8.209-32.201-9.343-32.201H-11.974C-13.106-32.201-13.516-31.793-13.516-30.659V-5.307H-21.315C-22.45-5.307-22.858-4.897-22.858-3.765V-1.542C-22.858-.408-22.45 0-21.315 0Z" fill="#673090"/>
<path transform="matrix(1,0,0,-1,479.6357,606.2471)" d="M0 0C1.088 0 1.314-.681 .771-1.542L-10.296-19.502V-30.659C-10.296-31.793-10.704-32.201-11.838-32.201H-14.423C-15.557-32.201-15.965-31.793-15.965-30.659V-19.411L-27.076-1.542C-27.621-.681-27.349 0-26.26 0H-23.086C-21.135 0-20.772-.091-20.093-1.36L-13.062-13.605-5.986-1.36C-5.306-.091-4.898 0-2.948 0Z" fill="#673090"/>
<path transform="matrix(1,0,0,-1,515.7432,606.2471)" d="M0 0C1.133 0 1.588-.408 1.588-1.542V-30.659C1.588-31.793 1.133-32.201 0-32.201H-2.585C-3.719-32.201-4.127-31.793-4.127-30.659V-18.55H-17.552V-30.659C-17.552-31.793-17.96-32.201-19.094-32.201H-21.68C-22.813-32.201-23.267-31.793-23.267-30.659V-1.542C-23.267-.408-22.813 0-21.68 0H-19.094C-17.96 0-17.552-.408-17.552-1.542V-13.243H-4.127V-1.542C-4.127-.408-3.719 0-2.585 0Z" fill="#673090"/>
<path transform="matrix(1,0,0,-1,542.9141,617.3584)" d="M0 0C0 4.173-2.585 6.485-7.257 6.485-11.929 6.485-14.514 4.218-14.514 0V-9.979C-14.514-14.195-11.929-16.464-7.257-16.464-2.585-16.464 0-14.15 0-9.979ZM-20.229-.045C-20.229 7.347-15.557 11.792-7.257 11.792 .952 11.792 5.668 7.347 5.668-.045V-9.933C5.668-17.325 .952-21.77-7.257-21.77-15.557-21.77-20.229-17.325-20.229-9.933Z" fill="#673090"/>
<path transform="matrix(1,0,0,-1,565.4141,605.5664)" d="M0 0C6.305 0 9.706-2.177 11.928-6.849 12.382-7.801 12.109-8.481 11.066-8.935L8.571-10.023C7.528-10.432 7.166-10.295 6.622-9.252 5.352-6.712 3.446-5.443 0-5.443-4.398-5.443-6.576-6.849-6.576-9.614-6.849-12.02-4.173-13.107-1.77-13.471-.362-13.742 2.902-14.105 4.581-14.423 6.395-14.785 8.889-15.693 10.296-16.963 11.701-18.231 12.79-20.5 12.79-23.402 12.79-29.57 8.027-33.562-.137-33.562-6.984-33.562-10.658-31.067-12.608-25.987-13.017-24.854-12.744-24.354-11.655-23.992L-9.161-23.085C-8.118-22.723-7.71-22.949-7.211-24.037-6.032-26.85-3.674-28.256-.137-28.256 4.672-28.256 7.075-26.668 7.075-23.539 7.075-21.543 5.352-20.318 3.537-19.865 2.631-19.639 1.406-19.457-.091-19.32-2.132-19.095-2.993-19.003-4.943-18.596-6.895-18.187-7.847-17.688-9.298-16.735-11.339-15.42-12.291-13.289-12.427-9.933-12.427-3.992-7.937 0 0 0" fill="#673090"/>
<path transform="matrix(1,0,0,-1,595.7148,621.9395)" d="M0 0C3.31 0 5.26 1.905 5.26 5.171 5.26 8.436 3.31 10.386 0 10.386H-7.348V0ZM.544 15.692C7.12 15.692 11.247 11.701 11.247 5.171 11.247-1.361 7.12-5.307 .544-5.307H-7.348V-14.967C-7.348-16.101-7.756-16.509-8.89-16.509H-11.476C-12.609-16.509-13.063-16.101-13.063-14.967V14.15C-13.063 15.284-12.609 15.692-11.476 15.692Z" fill="#673090"/>
<path transform="matrix(1,0,0,-1,611.3213,607.78909)" d="M0 0C0 1.134 .453 1.542 1.586 1.542H4.172C5.306 1.542 5.714 1.134 5.714 0V-29.117C5.714-30.251 5.306-30.659 4.172-30.659H1.586C.453-30.659 0-30.251 0-29.117Z" fill="#673090"/>
<path transform="matrix(1,0,0,-1,643.6582,606.2471)" d="M0 0C1.134 0 1.542-.408 1.542-1.542V-3.765C1.542-4.897 1.134-5.307 0-5.307H-7.801V-30.659C-7.801-31.793-8.209-32.201-9.343-32.201H-11.973C-13.106-32.201-13.515-31.793-13.515-30.659V-5.307H-21.316C-22.45-5.307-22.858-4.897-22.858-3.765V-1.542C-22.858-.408-22.45 0-21.316 0Z" fill="#673090"/>
<path transform="matrix(1,0,0,-1,658.9463,616.9961)" d="M0 0C-.544 1.633-.907 3.72-1.043 4.763L-1.089 5.533H-1.406C-1.406 3.811-1.723 1.996-2.403 .046L-5.896-9.569H3.447ZM13.334-19.955C13.696-20.953 13.334-21.452 12.291-21.452H9.933C8.072-21.452 7.484-21.18 7.12-20.091L5.034-14.241H-7.483L-9.615-20.091C-9.978-21.18-10.567-21.452-12.427-21.452H-14.513C-15.556-21.452-15.919-20.953-15.556-19.955L-4.217 9.524C-3.81 10.567-3.401 10.795-2.313 10.795H.091C1.18 10.795 1.633 10.523 1.995 9.569Z" fill="#673090"/>
<path transform="matrix(1,0,0,-1,679.542,606.2471)" d="M0 0C1.134 0 1.542-.408 1.542-1.542V-26.895H14.559C15.691-26.895 16.101-27.303 16.101-28.437V-30.659C16.101-31.793 15.691-32.201 14.559-32.201H-2.586C-3.719-32.201-4.172-31.793-4.172-30.659V-1.542C-4.172-.408-3.719 0-2.586 0Z" fill="#673090"/>
<path transform="matrix(1,0,0,-1,608.875,454.666)" d="M0 0C-.124 .738-.246 1.47-.368 2.194-.599 3.563-2.398 3.915-3.133 2.737L-3.153 2.705C-5.978-1.844-9.656-4.39-15.188-3.53-22.782-2.35-28.274-4.529-30.034-12.755-30.057-12.861-30.509-12.876-30.858-12.956-31.943-10.38-31.523-7.6-31.814-4.935-34.51 19.739-37.092 44.427-39.724 69.108-39.973 71.443-39.548 74.677-42.742 74.896-46.189 75.131-45.419 71.79-45.994 69.667-46.093 69.303-46.164 68.69-46.188 68.313-46.875 57.063-47.522 45.81-48.257 34.562-49.15 20.859-50.118 7.162-51.127-7.609-53.471-4.34-55.995-3.171-59.053-3.553-62.466-3.978-64.589-2.577-66.518 .3-69.592 4.887-73.506 4.711-76.744 .317-80.291-4.495-81.184-4.565-85.461-.367-90.913 4.984-94.771 5.689-101.313 1.919-106.413-1.021-111.84-2.535-117.604-3.36-122.31-4.034-125.93-2.722-128.578 1.26-130.925 4.788-133.132 8.433-135.75 11.75-139.675 16.723-144.261 16.722-148.254 11.828-150.545 9.021-152.619 6.008-154.531 2.927-157.542-1.926-161.594-4.435-167.411-3.522-174.796-2.364-179.822-4.804-181.421-12.59-181.455-12.76-181.9-12.845-182.502-13.14-184.31 3.668-186.104 20.346-187.896 37.023-189.107 48.311-190.31 59.599-191.534 70.884-191.755 72.922-192.191 75.127-194.791 74.969-197.146 74.826-197.232 72.668-197.358 70.815-197.665 66.285-197.993 61.755-198.275 57.224-199.226 41.964-199.916 26.683-201.224 11.453-201.717 5.701-201.235-.245-203.241-6.339-205.114-4.561-206.958-3.377-209.168-3.595-213.321-4.005-216.2-2.691-218.656 .969-221.305 4.917-225.04 4.527-228.003 .729-232.182-4.628-232.689-4.657-237.664 .175-242.832 5.195-246.36 5.761-252.688 2.003-257.62-.926-262.915-2.387-268.501-3.314-273.928-4.215-277.898-2.637-280.799 2.151-283.145 6.024-285.427 10-288.832 13.119-292.236 16.239-295.076 16.282-298.388 13.127-301.143 10.503-303.57 7.557-305.296 4.165-308.051-1.25-312.1-4.422-318.375-3.475-326.454-2.255-331.539-5.175-333.237-13.38-333.271-13.542-333.7-13.621-334.059-13.794-335.714 1.88-337.36 17.51-339.016 33.139-340.34 45.631-341.645 58.125-343.04 70.609-343.25 72.482-343.293 75.057-345.983 74.976-348.789 74.892-348.937 72.347-349.073 70.213-350.058 54.805-350.977 39.392-351.975 23.984-352.636 13.784-353.394 3.591-354.161-7.341-356.351-4.565-358.641-3.199-361.578-3.555-365.281-4.003-367.713-2.658-369.813 .581-372.541 4.785-376.392 4.625-379.482 .764-383.838-4.678-384.235-4.704-389.168 .113-394.549 5.369-397.788 5.555-405.031 1.559-406.355 .829-408.583-.275-409.974-.87-411.53-1.534-412.97-2.072-414.324-2.488-415.219-2.763-415.831-3.581-415.837-4.517-415.837-4.531-415.837-4.546-415.837-4.561-415.846-5.954-414.547-7.009-413.193-6.678-409.689-5.821-406.292-4.556-403.047-2.642-397.182 .819-396.017 .523-391.201-4.188-385.588-9.678-381.7-9.592-376.912-3.521-374.952-1.038-373.689-1.192-372.296-3.793-370.916-6.369-368.861-8.372-365.888-8.152-361.048-7.796-357.795-9.479-355.867-13.979-355.212-15.509-354.025-16.943-351.981-16.324-350.265-15.804-349.915-14.261-349.799-12.688-349.475-8.311-349.146-3.934-348.856 .445-347.816 16.222-346.791 31.999-345.703 48.653-345.371 47.106-345.15 46.397-345.073 45.675-343.388 29.878-341.714 14.08-340.048-1.719-339.381-8.04-338.765-14.367-338.065-20.686-337.853-22.596-337.113-24.353-334.917-24.575-332.899-24.778-332.039-23.251-331.415-21.607-330.77-19.908-330.137-18.203-329.449-16.521-325.698-7.346-327.626-8.204-317.577-8.408-312.094-8.52-307.813-6.815-304.556-2.489-302.099 .774-299.816 4.176-297.255 7.354-293.863 11.562-292.375 11.48-289.392 7.094-287.35 4.09-285.594 .887-283.482-2.065-280.803-5.811-277.22-8.409-272.422-8.2-265.418-7.895-258.598-6.678-252.367-3.098-245.429 .888-245.276 .811-239.498-4.607-234.221-9.556-229.635-9.38-225.355-3.616-223.276-.817-222.159-1.668-220.764-3.918-219.147-6.525-216.893-8.473-213.753-8.193-209.172-7.786-206.263-9.533-204.492-13.702-203.845-15.226-202.736-16.771-200.727-16.381-198.471-15.944-198.243-13.928-198.105-12.113-197.715-6.982-197.433-1.844-197.101 3.291-196.125 18.381-195.146 33.471-194.169 48.56-192.193 33.051-190.622 17.549-188.989 2.054-188.213-5.32-187.305-12.681-186.488-20.051-186.266-22.061-186.144-24.249-183.604-24.538-181.085-24.823-180.325-22.671-179.551-20.787-179.028-19.514-178.506-18.24-178.024-16.951-174.111-6.49-175.615-8.406-165.424-8.379-160.052-8.365-155.021-5.73-151.985-1.299-149.833 1.844-147.694 5.005-145.36 8.011-142.807 11.299-141.066 11.238-138.624 7.846-136.323 4.651-134.34 1.228-131.999-1.935-129.081-5.877-125.407-8.615-120.117-8.219-112.941-7.681-106.103-6.146-99.748-2.507-94.055 .755-93.004 .435-88.29-4.163-82.782-9.535-78.508-9.484-73.906-3.571-71.883-.972-70.74-1.448-69.258-3.812-67.548-6.536-65.161-8.488-61.822-8.222-57.622-7.887-54.911-9.45-53.22-13.302-52.52-14.895-51.492-16.809-49.227-16.341-46.934-15.868-46.965-13.778-46.837-11.965-45.955 .564-45.101 13.097-44.216 25.626-43.715 32.728-43.173 39.825-42.648 46.925-40.421 31.075-38.813 15.271-37.154-.528-36.459-7.149-35.676-13.762-34.886-20.373-34.667-22.203-34.345-24.231-32.096-24.542-29.572-24.891-28.845-22.776-28.092-20.944-27.287-18.983-26.539-16.998-25.799-15.011-23.306-8.327-23.283-7.922-16.075-8.425-9.104-8.911-4.161-6.257-.288-1.194-.031-.857 .069-.418 0 0" fill="#673090"/>
<path transform="matrix(1,0,0,-1,196.603,448.9775)" d="M0 0C1.168 .511 2.378 1.152 3.658 1.831 4.195 2.115 4.732 2.399 5.272 2.679 9.156 4.683 12.227 5.576 15.231 5.576 20.676 5.576 24.693 2.504 27.62-.298 30.439 3.084 34.025 4.94 37.754 4.94 40.163 4.94 44.733 4.125 48.275-1.336 48.772-2.103 49.072-2.341 49.137-2.387H49.144C49.167-2.387 49.243-2.396 49.369-2.396 49.511-2.396 49.677-2.384 49.861-2.361 50.44-2.292 51.022-2.256 51.591-2.256 51.703-2.256 51.814-2.257 51.926-2.26 52.443 4.982 52.932 11.825 53.379 18.744 53.921 27.104 54.439 35.466 54.958 43.829 55.394 50.875 55.831 57.921 56.282 64.967 56.891 74.519 62.682 76.114 66.08 76.217 66.192 76.22 66.303 76.222 66.412 76.222 69.007 76.222 75.143 75.232 76.082 66.062L76.121 65.692C77.275 55.377 78.382 44.896 79.454 34.758 79.454 34.758 82.361 7.271 83.465-3.196 85.603-2.385 87.987-1.965 90.585-1.965 91.959-1.965 93.421-2.081 94.932-2.309 95.323-2.367 95.692-2.397 96.031-2.397 96.982-2.397 98.754-2.397 100.797 1.619 102.743 5.441 105.459 8.986 109.103 12.458 112.071 15.285 115.27 16.72 118.609 16.72 121.898 16.72 125.099 15.313 128.125 12.541 132.021 8.972 134.616 4.672 136.906 .878L137.403 .056C138.73-2.138 139.784-2.312 141.022-2.312 141.502-2.312 142.045-2.262 142.636-2.164 148.33-1.218 152.465 .151 156.045 2.276 159.963 4.602 163.309 5.686 166.572 5.686 172.113 5.686 176.188 2.566 179.151-.265 181.966 3.137 185.538 5.002 189.259 5.002 193.246 5.002 196.836 2.921 199.372-.857 200.423-2.423 200.906-2.423 201.706-2.423 201.923-2.423 202.165-2.41 202.424-2.385 202.828-2.345 203.23-2.325 203.626-2.325H203.704C203.771-1.209 203.814-.071 203.858 1.085 203.921 2.793 203.987 4.56 204.141 6.357 205.053 16.972 205.675 27.84 206.276 38.351 206.536 42.889 206.795 47.429 207.079 51.966 207.271 55.067 207.485 58.168 207.7 61.269L208.006 65.726C208.587 74.396 213.929 76.009 217.061 76.2 217.292 76.213 217.52 76.22 217.741 76.22 219.799 76.22 226.598 75.479 227.629 65.941 228.46 58.286 229.281 50.627 230.101 42.969L235.048-3.07C237.025-2.369 239.217-2.007 241.598-2.007 242.967-2.007 244.427-2.126 245.936-2.363 246.364-2.43 246.769-2.464 247.142-2.464 248.412-2.464 249.928-2.205 251.851 .894 254.119 4.548 256.341 7.697 258.647 10.522 262.834 15.655 267.28 16.732 270.27 16.732 273.309 16.732 277.804 15.626 281.963 10.356 284.105 7.643 285.939 4.818 287.713 2.088 288.295 1.193 288.875 .299 289.465-.588 290.425-2.031 291.186-2.285 292.428-2.285 292.807-2.285 293.231-2.252 293.687-2.187 299.259-1.39 303.647 .016 307.496 2.236 311.398 4.484 314.756 5.532 318.066 5.532 323.559 5.532 327.682 2.614 330.753-.234 334.506 4.223 338.573 4.92 340.75 4.92 343.156 4.92 347.752 4.083 351.513-1.528 351.825-1.993 352.045-2.248 352.172-2.379 352.23-2.376 352.29-2.37 352.361-2.361 353.014-2.28 353.666-2.238 354.3-2.238 354.521-2.238 354.739-2.243 354.956-2.253L355.14 .421C355.821 10.294 356.476 19.809 357.097 29.324 357.599 37.009 358.06 44.696 358.522 52.384 358.741 56.02 358.958 59.658 359.18 63.294 359.208 63.813 359.256 64.716 359.574 65.758 359.606 65.958 359.622 66.17 359.642 66.382 360.549 75.199 366.625 76.15 369.195 76.15 369.453 76.15 369.722 76.142 370.002 76.123 373.282 75.898 378.862 74.154 379.384 64.992 379.401 64.705 379.414 64.422 379.441 64.155 380.241 56.662 381.035 49.169 381.829 41.676 383.386 26.986 384.99 11.861 386.616-3.124 388.69-2.376 390.999-1.988 393.51-1.988 394.966-1.988 396.527-2.115 398.149-2.368 398.506-2.423 398.841-2.451 399.145-2.451 399.947-2.451 401.29-2.451 403.23 .675 405.217 3.875 407.19 6.667 409.219 9.189 399.447 114.387 310.946 196.744 203.196 196.744 91.861 196.744 1.077 108.816-3.539-1.384-2.48-1.029-1.309-.571 0 0" fill="#f89522"/>
<path transform="matrix(1,0,0,-1,103.5303,456.1699)" d="M0 0 58.865-9.753 82.479-2.75C83.198-2.471 83.234-1.466 82.537-1.136L59.17 7.693 .055 1.732C-.925 1.598-.97 .197 0 0" fill="#f89522"/>
<path transform="matrix(1,0,0,-1,139.7139,429.6953)" d="M0 0 33.873-5.612 47.461-1.583C47.875-1.422 47.896-.844 47.494-.654L34.048 4.427 .031 .997C-.533 .919-.558 .113 0 0" fill="#f89522"/>
<path transform="matrix(1,0,0,-1,112.0508,388.5151)" d="M0 0 55.108-22.875 79.696-21.421C80.46-21.313 80.724-20.342 80.12-19.863L59.371-5.954 .447 1.675C-.538 1.766-.899 .413 0 0" fill="#f89522"/>
<path transform="matrix(1,0,0,-1,153.3037,370.9561)" d="M0 0 31.711-13.163 45.86-12.327C46.3-12.264 46.451-11.706 46.104-11.43L34.164-3.426 .257 .964C-.31 1.016-.518 .237 0 0" fill="#f89522"/>
<path transform="matrix(1,0,0,-1,135.7227,324.5664)" d="M0 0 48.468-34.8 72.743-38.972C73.512-39.04 73.989-38.155 73.51-37.55L56.464-19.291 .816 1.529C-.123 1.842-.782 .605 0 0" fill="#f89522"/>
<path transform="matrix(1,0,0,-1,179.8867,316.8418)" d="M0 0 27.89-20.025 41.859-22.425C42.301-22.464 42.576-21.956 42.3-21.607L32.492-11.1 .47 .88C-.07 1.06-.45 .349 0 0" fill="#f89522"/>
<path transform="matrix(1,0,0,-1,173.3076,267.6704)" d="M0 0 39.292-44.904 61.984-54.483C62.717-54.724 63.382-53.971 63.053-53.272L50.604-31.617 1.143 1.304C.299 1.821-.624 .768 0 0" fill="#f89522"/>
<path transform="matrix(1,0,0,-1,218.0718,270.18409)" d="M0 0 22.61-25.839 35.667-31.351C36.089-31.49 36.472-31.056 36.283-30.654L29.119-18.193 .657 .75C.172 1.048-.359 .442 0 0" fill="#f89522"/>
<path transform="matrix(1,0,0,-1,222.8384,220.8042)" d="M0 0 28.06-52.658 47.981-67.143C48.641-67.544 49.46-66.962 49.298-66.208L42.095-42.29 1.409 1.01C.706 1.706-.433 .889 0 0" fill="#f89522"/>
<path transform="matrix(1,0,0,-1,265.8604,233.42432)" d="M0 0 16.146-30.301 27.61-38.636C27.989-38.867 28.46-38.532 28.367-38.098L24.223-24.335 .811 .581C.406 .981-.25 .512 0 0" fill="#f89522"/>
<path transform="matrix(1,0,0,-1,281.7241,186.41992)" d="M0 0 15.359-57.657 31.467-76.29C32.019-76.831 32.948-76.45 32.962-75.678L31.383-50.749 1.601 .664C1.074 1.501-.22 .965 0 0" fill="#f89522"/>
<path transform="matrix(1,0,0,-1,320.7524,208.48633)" d="M0 0 8.838-33.178 18.107-43.9C18.424-44.211 18.959-43.992 18.967-43.548L18.059-29.203 .921 .382C.618 .864-.126 .555 0 0" fill="#f89522"/>
<path transform="matrix(1,0,0,-1,346.8823,166.3169)" d="M0 0 1.855-59.639 13.308-81.445C13.722-82.096 14.714-81.937 14.902-81.188L19.03-56.553 1.71 .282C1.388 1.217 .005 .989 0 0" fill="#f89522"/>
<path transform="matrix(1,0,0,-1,379.875,196.6748)" d="M0 0 1.067-34.318 7.658-46.866C7.896-47.241 8.467-47.149 8.575-46.719L10.95-32.542 .984 .162C.799 .7 .003 .569 0 0" fill="#f89522"/>
<path transform="matrix(1,0,0,-1,414.9043,161.54688)" d="M0 0-11.746-58.5-5.549-82.338C-5.294-83.066-4.291-83.137-3.938-82.451L5.681-59.397 1.73-.114C1.628 .871 .23 .962 0 0" fill="#f89522"/>
<path transform="matrix(1,0,0,-1,440.1357,198.6084)" d="M0 0-6.76-33.663-3.193-47.38C-3.047-47.799-2.47-47.839-2.267-47.445L3.269-34.179 .995-.065C.937 .501 .132 .554 0 0" fill="#f89522"/>
<path transform="matrix(1,0,0,-1,482.2314,172.35938)" d="M0 0-24.733-54.3-24.115-78.923C-24.032-79.69-23.072-79.986-22.571-79.399L-7.967-59.134 1.658-.504C1.783 .478 .442 .885 0 0" fill="#f89522"/>
<path transform="matrix(1,0,0,-1,498.3799,214.18457)" d="M0 0-14.232-31.246-13.877-45.415C-13.829-45.856-13.276-46.027-12.988-45.689L-4.585-34.028 .954-.29C1.025 .275 .254 .509 0 0" fill="#f89522"/>
<path transform="matrix(1,0,0,-1,545.3389,198.18903)" d="M0 0-36.425-47.259-41.419-71.378C-41.513-72.144-40.645-72.65-40.023-72.192L-21.196-55.777 1.501-.868C1.845 .06 .633 .761 0 0" fill="#f89522"/>
<path transform="matrix(1,0,0,-1,551.5605,242.58979)" d="M0 0-20.961-27.194-23.834-41.073C-23.888-41.514-23.389-41.805-23.031-41.542L-12.197-32.096 .863-.499C1.062 .035 .363 .438 0 0" fill="#f89522"/>
<path transform="matrix(1,0,0,-1,600.9258,237.6836)" d="M0 0-46.211-37.745-56.556-60.098C-56.821-60.823-56.091-61.514-55.382-61.208L-33.316-49.501 1.265-1.186C1.811-.361 .789 .598 0 0" fill="#f89522"/>
<path transform="matrix(1,0,0,-1,596.8945,282.33644)" d="M0 0-26.592-21.72-32.544-34.583C-32.696-35-32.276-35.397-31.869-35.221L-19.172-28.484 .728-.683C1.042-.208 .454 .344 0 0" fill="#f89522"/>
<path transform="matrix(1,0,0,-1,646.084,288.7773)" d="M0 0-53.58-26.256-68.733-45.674C-69.156-46.319-68.603-47.158-67.843-47.021L-43.694-40.634 .962-1.442C1.681-.763 .903 .403 0 0" fill="#f89522"/>
<path transform="matrix(1,0,0,-1,632.0107,331.3457)" d="M0 0-30.832-15.108-39.552-26.282C-39.795-26.653-39.477-27.136-39.039-27.058L-25.144-23.382 .553-.83C.967-.439 .52 .232 0 0" fill="#f89522"/>
<path transform="matrix(1,0,0,-1,678.4492,348.7959)" d="M0 0-58.145-13.393-77.314-28.859C-77.873-29.392-77.524-30.334-76.753-30.374L-51.785-29.642 .608-1.623C1.464-1.125 .972 .187 0 0" fill="#f89522"/>
<path transform="matrix(1,0,0,-1,655.0703,387.0527)" d="M0 0-33.458-7.707-44.489-16.606C-44.811-16.913-44.609-17.455-44.166-17.479L-29.799-17.057 .351-.934C.843-.647 .56 .107 0 0" fill="#f89522"/>
<path transform="matrix(1,0,0,-1,696.3291,414.5996)" d="M0 0-59.668 .171-81.851-10.534C-82.516-10.926-82.39-11.923-81.648-12.137L-57.167-17.099 .224-1.719C1.169-1.428 .988-.039 0 0" fill="#f89522"/>
<path transform="matrix(1,0,0,-1,664.8682,446.542)" d="M0 0-34.335 .098-47.1-6.062C-47.482-6.288-47.41-6.861-46.983-6.984L-32.896-9.84 .129-.989C.673-.822 .568-.022 0 0" fill="#f89522"/>
</g>
</g>
</svg>
